<svg width="512" height="418" viewBox="0 0 512 418" fill="none" xmlns="http://www.w3.org/2000/svg">
<g clip-path="url(#clip0_1_7)">
<path d="M105.995 254H106C117.287 254 128.316 250.62 137.691 244.294C147.066 237.968 154.363 228.984 158.67 218.483C162.976 207.983 164.102 196.432 161.906 185.29C159.71 174.147 154.29 163.903 146.322 155.859C138.353 147.813 128.194 142.328 117.125 140.106C106.056 137.884 94.5834 139.027 84.1609 143.388C73.7391 147.749 64.8415 155.128 58.5864 164.585C52.3318 174.04 48.998 185.15 49 196.51L49 196.515C49.0158 211.739 55.0119 226.347 65.6908 237.128C76.3717 247.912 90.8656 253.987 105.995 254Z" fill="white" stroke="#1E1E1E" stroke-width="12"/>
<path fill-rule="evenodd" clip-rule="evenodd" d="M0 56C0 25.0721 25.0721 0 56 0H456C486.928 0 512 25.0721 512 56V272C512 302.928 486.928 328 456 328H238.425L271.889 309.618C287.186 301.215 292.774 282.003 284.372 266.706C283.837 265.733 283.258 264.798 282.639 263.904L337.158 137.842C338.473 134.801 337.074 131.269 334.032 129.954C330.991 128.638 327.459 130.038 326.144 133.079L273.378 255.089C263.997 249.261 251.829 248.528 241.461 254.224L187.066 284.103C175.378 267.908 158.093 256.02 138.047 251.272C139.047 250.675 140.032 250.05 141.002 249.395C151.363 242.404 159.437 232.468 164.205 220.843C168.973 209.218 170.22 196.426 167.789 184.085C165.357 171.744 159.356 160.408 150.544 151.512C141.732 142.615 130.505 136.557 118.284 134.103C106.062 131.65 93.3948 132.911 81.8833 137.728C70.3717 142.545 60.5333 150.701 53.612 161.164C46.6908 171.627 42.9978 183.928 43 196.511C43.0175 213.377 49.661 229.547 61.4723 241.472C65.1727 245.208 69.2857 248.432 73.7032 251.098C44.7565 257.674 21.457 279.11 12.2515 306.961C4.5847 297.38 0 285.225 0 272V56Z" fill="white"/>
<path fill-rule="evenodd" clip-rule="evenodd" d="M98 260C54.3695 260 19 295.37 19 339V418H193V339.703L266.634 299.255C276.315 293.937 279.852 281.778 274.534 272.097C269.216 262.415 257.057 258.878 247.376 264.196L182.593 299.782C168.975 276.013 143.357 260 114 260H98Z" fill="white"/>
</g>
<defs>
<clipPath id="clip0_1_7">
<rect width="512" height="418" fill="white"/>
</clipPath>
</defs>
</svg>
