<svg width="512" height="474" viewBox="0 0 512 474" fill="none" xmlns="http://www.w3.org/2000/svg">
<path d="M106 281C116.087 281 125.948 277.979 134.335 272.32C142.722 266.661 149.259 258.617 153.119 249.206C156.978 239.795 157.988 229.44 156.019 219.45C154.051 209.459 149.193 200.283 142.059 193.081C134.926 185.879 125.838 180.975 115.944 178.988C106.051 177.002 95.7958 178.024 86.477 181.923C77.1581 185.822 69.1936 192.424 63.5907 200.895C57.9878 209.365 54.9982 219.323 55 229.509C55.0142 243.162 60.3922 256.252 69.9537 265.906C79.5153 275.56 92.4791 280.988 106 281Z" fill="white"/>
<path fill-rule="evenodd" clip-rule="evenodd" d="M0 56.5C0 25.572 25.0721 0.5 56 0.5H456C486.928 0.5 512 25.5721 512 56.5V305C512 335.928 486.928 361 456 361H238.425L271.889 342.618C287.186 334.215 292.774 315.003 284.372 299.706C283.837 298.733 283.258 297.798 282.639 296.904L337.158 170.842C338.473 167.801 337.074 164.269 334.032 162.954C330.991 161.638 327.459 163.038 326.144 166.079L273.378 288.089C263.997 282.261 251.829 281.528 241.461 287.224L187.066 317.103C175.378 300.908 158.093 289.02 138.047 284.272C139.047 283.675 140.032 283.05 141.002 282.395C151.363 275.404 159.437 265.468 164.205 253.843C168.973 242.218 170.22 229.426 167.789 217.085C165.357 204.744 159.356 193.408 150.544 184.512C141.732 175.615 130.505 169.557 118.284 167.103C106.062 164.65 93.3948 165.911 81.8833 170.728C70.3717 175.545 60.5333 183.701 53.612 194.164C46.6908 204.627 42.9978 216.928 43 229.511C43.0175 246.377 49.661 262.547 61.4723 274.472C65.1727 278.208 69.2857 281.432 73.7031 284.098C44.7565 290.674 21.457 312.11 12.2515 339.961C4.5847 330.38 0 318.225 0 305V56.5Z" fill="white"/>
<path fill-rule="evenodd" clip-rule="evenodd" d="M98 293C54.3695 293 19 328.37 19 372V473H193V372.703L266.634 332.255C276.315 326.937 279.852 314.778 274.534 305.097C269.216 295.415 257.057 291.878 247.376 297.196L182.593 332.782C168.975 309.013 143.357 293 114 293H98Z" fill="white"/>
</svg>
