<svg width="478" height="416" viewBox="0 0 478 416" fill="none" xmlns="http://www.w3.org/2000/svg">
<g clip-path="url(#clip0_1_91)">
<path d="M300.471 209.051H388.27C437.65 209.051 477.831 168.879 477.831 119.49C477.831 115.161 475.956 111.047 472.682 108.21L393.699 39.761C374.684 23.2742 347.698 25.113 330.847 40.2368C260.32 -17.7479 150.812 -15.9595 81.5858 64.6051L68.73 80.6889C24.5182 136.031 0.168579 205.525 0.168579 276.344C0.168579 353.193 63.0083 418.084 144.055 415.948L162.014 415.398C189.303 414.568 214.949 403.484 234.242 384.191C262.766 355.666 262.874 309.6 234.624 280.925C205.374 251.241 155.045 272.224 155.045 313.54C155.045 325.791 159.745 337.514 168.741 346.491C174.562 352.322 184.013 352.322 189.844 346.491C195.674 340.661 195.674 331.21 189.844 325.379C186.489 322.032 184.899 317.828 184.899 313.54C184.899 298.691 202.961 291.344 213.354 301.869C230.105 318.873 230.032 346.186 213.139 363.079C199.238 376.98 180.766 384.956 161.109 385.553C143.591 386.104 137.985 386.521 128.942 385.628C100.786 379.89 78.899 356.912 74.8034 328.197C74.8034 303.597 74.0738 310.82 77.6115 296.682L86.1106 262.695C94.9268 227.44 126.003 202.596 162.145 201.625L164.393 239.782C164.85 247.675 171.39 253.832 179.292 253.832H224.073C232.32 253.832 239 247.152 239 238.905C239 230.668 232.32 223.978 224.073 223.978H193.37L192.055 201.588H271.149C261.989 227.145 281.093 253.832 307.935 253.832H388.27C396.517 253.832 403.197 247.152 403.197 238.905C403.197 230.668 396.517 223.978 388.27 223.978H307.935C301.114 223.978 296.62 216.79 299.678 210.628L300.471 209.051Z" fill="white"/>
</g>
<defs>
<clipPath id="clip0_1_91">
<rect width="478" height="416" fill="white"/>
</clipPath>
</defs>
</svg>
