<svg width="478" height="416" viewBox="0 0 478 416" fill="none" xmlns="http://www.w3.org/2000/svg">
<g clip-path="url(#clip0_1_91)">
<path d="M177.529 209.051H89.7303C40.3501 209.051 0.168549 168.879 0.168549 119.49C0.168549 115.161 2.04373 111.047 5.31833 108.21L84.3006 39.761C103.316 23.2742 130.302 25.113 147.152 40.2368C217.68 -17.7479 327.187 -15.9595 396.414 64.6051L409.27 80.6889C453.482 136.031 477.831 205.525 477.831 276.344C477.831 353.193 414.992 418.084 333.945 415.948L315.986 415.398C288.697 414.568 263.051 403.484 243.758 384.191C215.233 355.666 215.126 309.6 243.375 280.925C272.626 251.241 322.955 272.224 322.955 313.54C322.955 325.791 318.255 337.514 309.259 346.491C303.438 352.322 293.987 352.322 288.156 346.491C282.325 340.661 282.325 331.21 288.156 325.379C291.511 322.032 293.101 317.828 293.101 313.54C293.101 298.691 275.039 291.344 264.646 301.869C247.895 318.873 247.968 346.186 264.861 363.079C278.762 376.98 297.234 384.956 316.891 385.553C334.408 386.104 340.014 386.521 349.058 385.628C377.214 379.89 399.101 356.912 403.196 328.197C403.196 303.597 403.926 310.82 400.388 296.682L391.889 262.695C383.073 227.44 351.997 202.596 315.855 201.625L313.607 239.782C313.15 247.675 306.61 253.832 298.708 253.832H253.927C245.68 253.832 239 247.152 239 238.905C239 230.668 245.68 223.978 253.927 223.978H284.63L285.945 201.588H206.851C216.011 227.145 196.907 253.832 170.065 253.832H89.7303C81.4832 253.832 74.8033 247.152 74.8033 238.905C74.8033 230.668 81.4832 223.978 89.7303 223.978H170.065C176.886 223.978 181.38 216.79 178.322 210.628L177.529 209.051Z" fill="white"/>
</g>
<defs>
<clipPath id="clip0_1_91">
<rect width="478" height="416" fill="white"/>
</clipPath>
</defs>
</svg>
