<svg width="31" height="34" viewBox="0 0 31 34" fill="none" xmlns="http://www.w3.org/2000/svg">
<path fill-rule="evenodd" clip-rule="evenodd" d="M0.928566 0C0.705022 0 0.523804 0.181219 0.523804 0.404762V33.5952C0.523804 33.8188 0.705022 34 0.928566 34H10.7159H19.088H29.7622C30.0766 34 30.271 33.6572 30.1095 33.3874L22.4765 20.6335C22.3406 20.4064 22.4558 20.1123 22.7076 20.0309C27.7964 18.3875 29.763 15.3877 29.763 9.91667C29.763 3.58688 25.6921 0 16.592 0H0.928566ZM22.6315 3.94643C22.6315 3.72288 22.4503 3.54167 22.2268 3.54167H3.78117C3.55763 3.54167 3.37641 3.72288 3.37641 3.94643V9.18041C3.37641 9.40395 3.55763 9.58517 3.78117 9.58517H13.7663C14.0939 9.58517 14.2858 9.95402 14.0978 10.2223L3.44973 25.4124C3.40201 25.4805 3.37641 25.5616 3.37641 25.6447V30.8115C3.37641 31.035 3.55763 31.2163 3.78117 31.2163H22.7274C22.9509 31.2163 23.1321 31.035 23.1321 30.8115V25.5393C23.1321 25.3157 22.9509 25.1345 22.7274 25.1345H12.6124C12.2876 25.1345 12.0951 24.7712 12.2774 24.5025L22.5617 9.34382C22.6072 9.27676 22.6315 9.1976 22.6315 9.11657V3.94643Z" fill="#A02CFA"/>
</svg>
