<svg width="422" height="418" viewBox="0 0 422 418" fill="none" xmlns="http://www.w3.org/2000/svg">
<g clip-path="url(#clip0_1_44)">
<path d="M293.498 108.556C261.383 83.2168 219.837 74.0837 179.175 83.8071C132.032 94.709 94.0234 132.128 82.5312 178.978C71.04 226.121 84.2991 273.853 118.183 307.149C130.264 319.23 137.336 338.185 137.336 357.632V360.874C137.336 369.123 143.817 375.606 152.068 375.606H269.927C278.178 375.606 284.659 369.123 284.659 360.874V357.632C284.659 338.479 292.025 318.934 304.99 306.265C329.741 281.22 343.588 247.925 343.588 212.568C343.588 171.907 325.32 133.896 293.498 108.556ZM204.997 163.371C182.771 163.371 166.591 178.114 162.354 195.181C160.5 202.649 155.616 210.897 147.499 208.942C139.616 206.986 138 200.177 139.753 193.102C147.052 163.638 174.727 138.906 210.997 138.906C217 138.906 222.73 142.777 222.73 151.638C222.73 160.5 212 163.371 204.997 163.371Z" fill="white"/>
<path d="M159.068 391C155.202 391 152.068 394.134 152.068 398V409.25C152.068 439.44 171.894 464 196.265 464H225.73C250.101 464 269.927 439.44 269.927 409.25V398C269.927 394.134 266.793 391 262.927 391H159.068Z" fill="white"/>
<rect x="204" width="14" height="64" rx="7" fill="white"/>
<rect x="61" y="61.4853" width="14" height="64" rx="7" transform="rotate(-45 61 61.4853)" fill="white"/>
<rect x="-0.260315" y="186.811" width="14" height="64" rx="7" transform="rotate(-78 -0.260315 186.811)" fill="white"/>
<rect width="14" height="64" rx="7" transform="matrix(-0.207912 -0.978148 -0.978148 0.207912 422.096 186.811)" fill="white"/>
<rect width="14" height="64" rx="7" transform="matrix(-0.707107 -0.707107 -0.707107 0.707107 360.74 61.4853)" fill="white"/>
</g>
<defs>
<clipPath id="clip0_1_44">
<rect width="422" height="418" fill="white"/>
</clipPath>
</defs>
</svg>
