<svg width="396" height="429" viewBox="0 0 396 429" fill="none" xmlns="http://www.w3.org/2000/svg">
<g clip-path="url(#clip0_1_86)">
<path d="M114 35.3333C114 22.999 102.583 13 88.5 13C74.4167 13 63 22.999 63 35.3333V57.6667C63 70.001 74.4167 80 88.5 80C102.583 80 114 70.001 114 57.6667V35.3333Z" fill="white"/>
<path d="M332 35.3333C332 22.999 320.583 13 306.5 13C292.417 13 281 22.999 281 35.3333V57.6667C281 70.001 292.417 80 306.5 80C320.583 80 332 70.001 332 57.6667V35.3333Z" fill="white"/>
<path d="M-0.0953369 153.571V389.381C-0.0953369 411.261 17.6441 429 39.5237 429H356.476C378.356 429 396.095 411.261 396.095 389.381V153.571H-0.0953369ZM118.762 359.667C118.762 370.611 109.897 379.476 98.9523 379.476H79.1428C68.198 379.476 59.3332 370.611 59.3332 359.667V339.857C59.3332 328.912 68.198 320.048 79.1428 320.048H98.9523C109.897 320.048 118.762 328.912 118.762 339.857V359.667ZM118.762 250.714C118.762 261.659 109.897 270.524 98.9523 270.524H79.1428C68.198 270.524 59.3332 261.659 59.3332 250.714V230.905C59.3332 219.96 68.198 211.095 79.1428 211.095H98.9523C109.897 211.095 118.762 219.96 118.762 230.905V250.714ZM227.714 359.667C227.714 370.611 218.849 379.476 207.905 379.476H188.095C177.15 379.476 168.286 370.611 168.286 359.667V339.857C168.286 328.912 177.15 320.048 188.095 320.048H207.905C218.849 320.048 227.714 328.912 227.714 339.857V359.667ZM227.714 250.714C227.714 261.659 218.849 270.524 207.905 270.524H188.095C177.15 270.524 168.286 261.659 168.286 250.714V230.905C168.286 219.96 177.15 211.095 188.095 211.095H207.905C218.849 211.095 227.714 219.96 227.714 230.905V250.714ZM336.667 359.667C336.667 370.611 327.802 379.476 316.857 379.476H297.048C286.103 379.476 277.238 370.611 277.238 359.667V339.857C277.238 328.912 286.103 320.048 297.048 320.048H316.857C327.802 320.048 336.667 328.912 336.667 339.857V359.667ZM336.667 250.714C336.667 261.659 327.802 270.524 316.857 270.524H297.048C286.103 270.524 277.238 261.659 277.238 250.714V230.905C277.238 219.96 286.103 211.095 297.048 211.095H316.857C327.802 211.095 336.667 219.96 336.667 230.905V250.714Z" fill="white"/>
<path d="M396.095 141.762V82.3333C396.095 60.4537 378.356 42.7143 356.476 42.7143H346.571V52.6191C346.571 74.469 328.802 92.2381 306.952 92.2381C285.102 92.2381 267.333 74.469 267.333 52.6191V42.7143H128.667V52.6191C128.667 74.469 110.897 92.2381 89.0475 92.2381C67.1976 92.2381 49.4285 74.469 49.4285 52.6191V42.7143H39.5237C17.6441 42.7143 -0.0953369 60.4537 -0.0953369 82.3333V141.762H396.095Z" fill="white"/>
</g>
<defs>
<clipPath id="clip0_1_86">
<rect width="396" height="429" fill="white"/>
</clipPath>
</defs>
</svg>
