<svg width="512" height="418" viewBox="0 0 512 418" fill="none" xmlns="http://www.w3.org/2000/svg">
<path d="M327.874 201.813C307.917 201.813 288.409 195.895 271.816 184.807C255.222 173.72 242.29 157.96 234.654 139.522C227.017 121.084 225.02 100.796 228.915 81.2228C232.81 61.6498 242.421 43.6713 256.534 29.5609C270.647 15.4506 288.627 5.84228 308.201 1.95105C327.774 -1.94018 348.062 0.0604785 366.499 7.70002C384.936 15.3396 400.693 28.2748 411.777 44.87C422.862 61.4651 428.777 80.9747 428.773 100.931C428.745 127.681 418.105 153.327 399.189 172.241C380.272 191.154 354.624 201.79 327.874 201.813Z" fill="white"/>
<path d="M195.884 270.818C221.452 244.593 254.257 226.585 290.109 219.094C325.961 211.603 363.232 214.969 397.162 228.762C431.091 242.556 460.139 266.151 480.594 296.532C501.049 326.914 511.983 362.704 512 399.33C512 404.013 510.14 408.503 506.829 411.814C503.518 415.125 499.027 416.986 494.345 416.986H161.368C156.686 416.986 152.195 415.125 148.884 411.814C145.573 408.503 143.713 404.013 143.713 399.33C143.645 380.609 146.535 361.995 152.276 344.176C160.824 316.627 175.767 291.49 195.884 270.818Z" fill="white"/>
<path d="M135.319 216.937C92.9695 216.937 58.6383 182.606 58.6383 140.256C58.6383 97.9063 92.9695 63.5751 135.319 63.5751C177.669 63.5751 212 97.9063 212 140.256C212 182.606 177.669 216.937 135.319 216.937Z" fill="white"/>
<path d="M135.319 227.898C159.504 227.989 183.221 234.575 203.989 246.969C200.074 250.469 196.123 253.915 192.424 257.704C167.857 282.955 149.607 313.657 139.162 347.303C135.585 358.381 132.948 369.739 131.278 381.259H18.0426C13.2574 381.259 8.66817 379.359 5.28453 375.975C1.90089 372.591 0 368.002 0 363.217C0.038208 327.34 14.3073 292.943 39.6763 267.574C65.0452 242.205 99.442 227.936 135.319 227.898Z" fill="white"/>
</svg>
