<svg width="480" height="574" viewBox="0 0 480 574" fill="none" xmlns="http://www.w3.org/2000/svg">
<path d="M100.16 572.731C99.2778 572.731 98.506 572.511 97.8446 572.07L95.1986 570.416C93.8757 569.644 93.1039 568.211 93.1039 566.668L89.3556 551.564L87.7019 548.587L85.0559 547.375C85.0559 547.375 73.3698 548.477 73.2595 548.477C72.2673 548.477 71.2751 548.146 70.5034 547.485L62.7861 541.421L56.7225 540.98L54.0766 541.862L49.2257 546.934C48.3437 547.816 47.2413 548.257 46.0286 548.257C45.3671 548.257 44.8158 548.146 44.1544 547.816L38.4215 545.17L21.223 545.39L15.0492 547.705C15.0492 547.705 14.057 547.926 13.5058 547.926C11.9623 547.926 10.4188 547.044 9.64711 545.611L7.77292 542.193C7.44218 541.531 7.22169 540.87 7.22169 540.209L6.44996 524.774L4.24502 520.364L0.937621 513.198C0.937621 513.198 0.606881 512.316 0.606881 511.875L0.0556446 507.465C-0.164849 506.142 0.27614 504.819 1.26836 503.827L7.66267 496.992C7.66267 496.992 8.87539 495.889 9.42662 495.669L13.7263 493.795C13.7263 493.795 14.7185 493.464 15.1595 493.464L21.4435 493.023L22.987 491.81L24.9714 483.431C25.3022 482.108 26.1841 481.006 27.5071 480.455L31.5862 478.581L34.1219 472.848C34.4526 472.076 35.1141 471.304 35.8859 470.863L41.7289 467.225L44.1544 462.484C44.4851 461.823 44.9261 461.272 45.4773 460.831L47.7925 459.177L49.4462 453.775L47.2413 441.097L48.5642 416.401L47.4618 407.802C47.4618 407.141 47.4618 406.479 47.6823 405.818L50.5487 397.549L45.8081 385.532C45.1466 383.879 45.4773 382.004 46.69 380.792L48.895 378.476L51.6511 359.183C51.6511 359.183 51.8716 358.081 52.2024 357.64L66.6447 331.842C66.6447 331.842 67.3062 330.85 67.8574 330.519L81.0871 320.266L90.3478 305.493C90.7888 304.832 91.34 304.28 92.0015 303.95L100.711 299.319L103.026 294.138C103.357 293.366 103.908 292.704 104.68 292.263L111.846 287.523C112.618 287.082 113.389 286.751 114.271 286.751C114.382 286.751 118.461 287.082 118.461 287.082L124.194 278.593C124.194 278.593 124.965 277.711 125.406 277.38L130.478 273.962C131.249 273.521 132.131 273.191 133.013 273.191C133.344 273.191 133.785 273.191 134.116 273.301L143.707 275.616L157.709 267.568C158.37 267.237 159.032 267.017 159.803 266.907L167.19 266.686C168.182 266.686 169.064 267.017 169.946 267.568L173.474 270.324H176.01L182.404 260.843C182.955 259.961 183.837 259.41 184.719 259.079L194.752 255.882L197.838 252.244L199.161 247.724C199.382 246.842 199.933 246.07 200.595 245.519L206.217 240.999L214.706 236.589L227.715 233.061L229.81 224.462C230.03 223.8 230.251 223.139 230.802 222.587L232.676 220.493C233.338 219.721 234.22 219.17 235.212 219.06L238.96 218.288C238.96 218.288 239.512 218.288 239.842 218.288C241.055 218.288 242.268 218.839 243.15 219.831L249.103 226.446L252.3 226.005L253.293 224.682L257.261 220.162C257.923 219.501 258.695 218.949 259.577 218.729L266.302 217.075L272.035 209.689C272.475 209.137 273.137 208.586 273.798 208.366L282.067 204.727C282.618 204.507 283.28 204.397 283.831 204.397L293.533 204.617C294.415 204.617 295.407 204.948 296.179 205.499L314.59 219.501L321.205 226.667L322.969 227.438L331.458 226.336L337.852 222.367L349.207 207.153L350.199 196.569L354.389 183.56L354.83 181.796L355.381 169.559C355.381 168.236 356.153 166.913 357.255 166.141L361.334 163.275L363.87 159.196L366.406 142.989C366.626 141.666 367.398 140.564 368.5 139.902L371.698 137.918L373.021 129.539C373.131 128.657 373.572 127.775 374.233 127.114L380.628 120.609L381.73 112.451C381.84 111.459 382.392 110.466 383.053 109.805L403.118 90.8425L406.425 82.0228C406.866 80.6998 407.969 79.7076 409.292 79.2666C409.733 79.1564 410.174 79.0461 410.615 79.0461C411.497 79.0461 412.489 79.3769 413.261 79.9281L415.686 81.6921C416.678 82.4638 417.34 83.5663 417.56 84.779L418.773 95.8037L420.868 99.2213L423.624 100.103L439.61 100.655H442.476C444.35 100.655 446.004 101.867 446.665 103.631L451.296 116.751L453.391 118.845L458.682 120.278C460.005 120.609 461.108 121.601 461.659 122.924L465.628 132.516C465.959 133.288 466.069 134.059 465.959 134.831L464.966 143.21L465.959 150.266C465.959 151.037 465.959 151.809 465.628 152.581L460.667 164.377V165.48L460.998 167.464L461.99 177.938C462.21 180.253 460.667 182.237 458.462 182.788H457.8V185.324C457.8 185.986 457.58 186.647 457.249 187.308L454.052 193.262C453.611 194.144 452.839 194.805 451.957 195.136L434.097 203.294L428.916 210.24L427.042 212.555L424.616 221.044V222.808L423.734 229.974L424.616 233.722L428.365 236.92C429.026 237.581 429.577 238.353 429.798 239.235L431.341 245.739L433.215 246.842C434.428 247.503 435.2 248.716 435.42 250.039L436.413 256.544C436.413 257.095 436.413 257.756 436.413 258.307L427.372 294.248C427.372 294.248 427.042 295.13 426.821 295.571L422.411 302.627L422.852 319.164C422.852 320.156 422.632 321.038 422.08 321.81L418.222 327.432L417.671 331.291L421.309 348.71C421.529 349.702 421.309 350.805 420.868 351.686L418.442 356.207C417.891 357.199 417.009 357.971 416.017 358.301L411.497 359.955L408.3 367.672C407.859 368.664 407.197 369.436 406.315 369.877L402.126 374.397C402.126 374.397 401.023 375.279 400.362 375.5L398.708 376.051L400.913 379.469C401.574 380.571 401.795 381.894 401.464 383.217C401.134 384.54 400.141 385.532 399.039 386.083L376.989 396.006L366.957 407.141C366.075 408.023 364.862 408.574 363.65 408.574L358.468 408.353L352.735 410.448L347.664 414.417L343.805 421.693L343.585 429.3C343.585 431.285 342.262 432.938 340.388 433.49L335.537 434.923C335.537 434.923 334.655 435.143 334.214 435.143C333.001 435.143 331.899 434.702 331.017 433.82L327.709 430.513L325.173 430.292L310.952 432.608L304.557 433.6L289.343 439.002L282.067 445.396L275.452 455.208C274.901 456.09 273.909 456.752 272.917 457.082L267.294 458.516L262.774 462.705C262.002 463.477 261.01 463.807 259.907 463.918L251.749 464.248L248.331 465.792L241.276 471.635C241.276 471.635 240.173 472.296 239.512 472.517L225.621 475.824C225.621 475.824 224.959 475.935 224.518 475.935C224.298 475.935 224.077 475.935 223.967 475.935L199.272 472.737L182.624 477.809L172.482 480.896L166.969 482.99L162.449 488.282C161.788 489.054 160.795 489.605 159.803 489.826L153.74 490.928L145.14 501.622L140.51 528.081C140.29 529.404 139.408 530.617 138.195 531.279L131.801 534.586L120.776 543.406L115.705 547.595L113.941 549.579L112.618 556.194C112.507 556.966 112.066 557.738 111.515 558.399L106.113 564.353L104.79 569.865C104.459 571.298 103.467 572.401 102.144 572.952C101.593 573.172 101.042 573.283 100.49 573.283L100.16 572.731Z" fill="#7D6D89"/>
<path d="M348.767 120.5C347.444 120.5 346.121 119.949 345.239 118.846L342.372 115.208L337.411 115.98C337.411 115.98 336.97 115.98 336.75 115.98C335.206 115.98 333.773 115.208 332.891 113.775L329.143 107.601C328.481 106.499 328.371 105.286 328.702 104.073L330.466 97.8995C330.797 96.9072 331.458 95.915 332.34 95.3638L344.798 87.426L349.097 81.9137L348.877 77.1731C348.877 76.5116 348.877 75.9603 349.208 75.2989L353.507 64.6049L352.074 61.2975C351.633 60.4156 351.633 59.3131 351.854 58.4311L352.956 54.2417C353.066 53.6905 353.397 53.1393 353.728 52.6983L359.13 45.7527L363.43 31.4206C363.65 30.7592 363.871 30.2079 364.312 29.7669L367.839 25.7981C368.501 25.0263 369.383 24.4751 370.375 24.3648L373.903 23.7034C373.903 23.7034 374.454 23.7034 374.675 23.7034C375.777 23.7034 376.769 24.1444 377.651 24.8058L387.243 33.2948L396.504 33.0743C397.606 33.0743 398.709 33.5153 399.591 34.2871L411.056 44.8708C411.056 44.8708 412.048 45.9732 412.269 46.7449L414.364 53.029C414.915 54.6827 414.364 56.5569 413.151 57.7696L400.913 68.7943L392.535 90.7334C392.314 91.2847 391.984 91.8359 391.543 92.2769L388.345 95.3638L386.471 102.089C386.471 102.089 386.03 103.081 385.699 103.522L382.613 107.711C381.731 108.814 380.408 109.475 378.974 109.475C378.864 109.475 370.926 108.593 370.926 108.593L366.296 113.775C365.524 114.657 364.532 115.098 363.43 115.208L356.484 115.98L350.972 119.618C350.2 120.059 349.318 120.39 348.546 120.39L348.767 120.5Z" fill="#7D6D89"/>
<path d="M344.468 32.0818C343.035 32.0818 341.602 31.3101 340.72 30.0974L338.845 27.3412C338.184 26.349 337.963 25.1363 338.184 23.9236L339.066 20.1752L337.412 14.3321C337.082 13.2296 337.302 12.0169 337.853 11.0247L342.704 2.31518C343.476 0.881975 345.019 0 346.673 0C346.783 0 352.185 0.551233 352.185 0.551233C353.729 0.66148 355.052 1.6537 355.823 3.08691L360.123 12.1271C360.564 13.1194 360.674 14.3321 360.344 15.4346L357.146 25.2465C357.146 25.2465 356.816 26.0182 356.595 26.349L354.941 28.8847C354.28 29.8769 353.288 30.5384 352.075 30.7589L345.46 32.0818C345.46 32.0818 344.909 32.0818 344.578 32.0818H344.468Z" fill="#7D6D89"/>
<path d="M202 286C196.167 286.007 190.576 288.327 186.451 292.451C182.327 296.576 180.007 302.167 180 308C179.993 312.766 181.55 317.404 184.432 321.2C184.432 321.2 185.032 321.99 185.13 322.104L202 342L218.878 322.094C218.966 321.988 219.568 321.2 219.568 321.2L219.57 321.194C222.451 317.399 224.007 312.764 224 308C223.993 302.167 221.673 296.576 217.549 292.451C213.424 288.327 207.833 286.007 202 286ZM202 316C200.418 316 198.871 315.531 197.555 314.652C196.24 313.773 195.214 312.523 194.609 311.061C194.003 309.6 193.845 307.991 194.154 306.439C194.462 304.887 195.224 303.462 196.343 302.343C197.462 301.224 198.887 300.462 200.439 300.154C201.991 299.845 203.6 300.003 205.061 300.609C206.523 301.214 207.773 302.24 208.652 303.555C209.531 304.871 210 306.418 210 308C209.997 310.121 209.154 312.154 207.654 313.654C206.154 315.154 204.121 315.997 202 316Z" fill="white"/>
<path d="M238.512 333V299.4H244.752V327.72H262.32V333H238.512ZM276.697 307.08C284.089 307.08 288.361 310.584 288.361 317.976V333H282.697V329.88C281.257 332.088 278.473 333.336 274.633 333.336C268.777 333.336 265.081 330.12 265.081 325.656C265.081 321.384 267.961 318.024 275.737 318.024H282.361V317.64C282.361 314.136 280.249 312.072 275.977 312.072C273.097 312.072 270.121 313.032 268.201 314.616L265.849 310.248C268.585 308.136 272.569 307.08 276.697 307.08ZM275.881 328.968C278.809 328.968 281.353 327.624 282.361 324.984V322.008H276.169C272.089 322.008 270.985 323.544 270.985 325.416C270.985 327.576 272.809 328.968 275.881 328.968ZM310.605 307.08C316.749 307.08 321.309 310.584 321.309 318.312V333H315.309V319.08C315.309 314.52 313.053 312.312 309.213 312.312C304.941 312.312 302.061 314.904 302.061 320.04V333H296.061V307.368H301.773V310.68C303.741 308.328 306.861 307.08 310.605 307.08ZM334.44 328.2H348.936V333H326.808V329.208L340.872 312.168H327.096V307.368H348.552V311.16L334.44 328.2ZM364.259 307.08C371.651 307.08 375.923 310.584 375.923 317.976V333H370.259V329.88C368.819 332.088 366.035 333.336 362.195 333.336C356.339 333.336 352.643 330.12 352.643 325.656C352.643 321.384 355.523 318.024 363.299 318.024H369.923V317.64C369.923 314.136 367.811 312.072 363.539 312.072C360.659 312.072 357.683 313.032 355.763 314.616L353.411 310.248C356.147 308.136 360.131 307.08 364.259 307.08ZM363.443 328.968C366.371 328.968 368.915 327.624 369.923 324.984V322.008H363.731C359.651 322.008 358.547 323.544 358.547 325.416C358.547 327.576 360.371 328.968 363.443 328.968ZM389.335 311.112C391.063 308.424 394.183 307.08 398.455 307.08V312.792C397.927 312.696 397.495 312.648 397.063 312.648C392.503 312.648 389.623 315.336 389.623 320.568V333H383.623V307.368H389.335V311.112ZM414.831 333.336C406.959 333.336 401.199 327.864 401.199 320.184C401.199 312.504 406.959 307.08 414.831 307.08C422.799 307.08 428.511 312.504 428.511 320.184C428.511 327.864 422.799 333.336 414.831 333.336ZM414.831 328.2C419.199 328.2 422.463 325.08 422.463 320.184C422.463 315.288 419.199 312.168 414.831 312.168C410.511 312.168 407.247 315.288 407.247 320.184C407.247 325.08 410.511 328.2 414.831 328.2ZM447.976 327.336L449.656 331.608C448.216 332.76 446.056 333.336 443.896 333.336C438.28 333.336 435.064 330.36 435.064 324.696V312.36H430.84V307.56H435.064V301.704H441.064V307.56H447.928V312.36H441.064V324.552C441.064 327.048 442.312 328.392 444.616 328.392C445.864 328.392 447.064 328.056 447.976 327.336ZM477.844 320.328C477.844 320.808 477.796 321.528 477.748 322.104H457.636C458.356 325.848 461.476 328.248 465.94 328.248C468.82 328.248 471.076 327.336 472.9 325.464L476.116 329.16C473.812 331.896 470.212 333.336 465.796 333.336C457.204 333.336 451.636 327.816 451.636 320.184C451.636 312.552 457.252 307.08 464.884 307.08C472.372 307.08 477.844 312.312 477.844 320.328ZM464.884 311.88C460.996 311.88 458.164 314.376 457.588 318.12H472.132C471.652 314.424 468.82 311.88 464.884 311.88Z" fill="white"/>
<path d="M239.068 362.564H249.12V365H235.036V363.096L243.016 355.396C245.088 353.38 245.48 352.148 245.48 350.916C245.48 348.9 244.052 347.668 241.308 347.668C239.208 347.668 237.5 348.34 236.296 349.796L234.392 348.144C235.904 346.268 238.508 345.176 241.56 345.176C245.648 345.176 248.28 347.276 248.28 350.636C248.28 352.54 247.72 354.248 245.06 356.796L239.068 362.564ZM259.348 365.224C254.756 365.224 251.34 361.584 251.34 355.2C251.34 348.816 254.756 345.176 259.348 345.176C263.912 345.176 267.328 348.816 267.328 355.2C267.328 361.584 263.912 365.224 259.348 365.224ZM259.348 362.732C262.4 362.732 264.528 360.212 264.528 355.2C264.528 350.188 262.4 347.668 259.348 347.668C256.268 347.668 254.14 350.188 254.14 355.2C254.14 360.212 256.268 362.732 259.348 362.732ZM278.024 365.224C273.432 365.224 270.016 361.584 270.016 355.2C270.016 348.816 273.432 345.176 278.024 345.176C282.588 345.176 286.004 348.816 286.004 355.2C286.004 361.584 282.588 365.224 278.024 365.224ZM278.024 362.732C281.076 362.732 283.204 360.212 283.204 355.2C283.204 350.188 281.076 347.668 278.024 347.668C274.944 347.668 272.816 350.188 272.816 355.2C272.816 360.212 274.944 362.732 278.024 362.732ZM287.49 345.4H294.686V365H291.914V347.836H287.49V345.4ZM306.744 358.476V356.152H314.276V358.476H306.744ZM328.455 362.564H338.507V365H324.423V363.096L332.403 355.396C334.475 353.38 334.867 352.148 334.867 350.916C334.867 348.9 333.439 347.668 330.695 347.668C328.595 347.668 326.887 348.34 325.683 349.796L323.779 348.144C325.291 346.268 327.895 345.176 330.947 345.176C335.035 345.176 337.667 347.276 337.667 350.636C337.667 352.54 337.107 354.248 334.447 356.796L328.455 362.564ZM348.735 365.224C344.143 365.224 340.727 361.584 340.727 355.2C340.727 348.816 344.143 345.176 348.735 345.176C353.299 345.176 356.715 348.816 356.715 355.2C356.715 361.584 353.299 365.224 348.735 365.224ZM348.735 362.732C351.787 362.732 353.915 360.212 353.915 355.2C353.915 350.188 351.787 347.668 348.735 347.668C345.655 347.668 343.527 350.188 343.527 355.2C343.527 360.212 345.655 362.732 348.735 362.732ZM367.411 365.224C362.819 365.224 359.403 361.584 359.403 355.2C359.403 348.816 362.819 345.176 367.411 345.176C371.975 345.176 375.391 348.816 375.391 355.2C375.391 361.584 371.975 365.224 367.411 365.224ZM367.411 362.732C370.463 362.732 372.591 360.212 372.591 355.2C372.591 350.188 370.463 347.668 367.411 347.668C364.331 347.668 362.203 350.188 362.203 355.2C362.203 360.212 364.331 362.732 367.411 362.732ZM390.062 354.724C392.302 355.592 393.534 357.216 393.534 359.456C393.534 363.012 390.51 365.224 385.722 365.224C380.962 365.224 377.966 363.012 377.966 359.456C377.966 357.216 379.198 355.564 381.41 354.724C379.618 353.884 378.666 352.428 378.666 350.496C378.666 347.22 381.494 345.176 385.722 345.176C389.978 345.176 392.834 347.22 392.834 350.496C392.834 352.428 391.854 353.884 390.062 354.724ZM385.722 347.444C383.09 347.444 381.438 348.648 381.438 350.608C381.438 352.54 383.034 353.744 385.722 353.744C388.438 353.744 390.09 352.54 390.09 350.608C390.09 348.648 388.354 347.444 385.722 347.444ZM385.722 362.956C388.83 362.956 390.734 361.584 390.734 359.372C390.734 357.216 388.83 355.872 385.722 355.872C382.614 355.872 380.766 357.216 380.766 359.372C380.766 361.584 382.614 362.956 385.722 362.956Z" fill="white"/>
</svg>
