<svg width="683" height="508" viewBox="0 0 683 508" fill="none" xmlns="http://www.w3.org/2000/svg">
<g clip-path="url(#clip0_5_352)">
<path d="M630.343 105.805L633.016 100.808L631.094 99.7083L630.429 99.7693L627.463 99.1353L625.854 93.7827L624.391 93.7315L619.582 94.1534L616.963 91.3808H612.093L597.604 97.5259L598.352 99.64L592.917 99.0402L591.685 100.769L587.503 99.1255L586.777 97.082L581.063 94.7752L577.369 94.2144L572.858 94.7533L571.287 95.6385L568.895 98.3403L564.308 98.9987L562.523 94.5241L560.602 92.9024L551.187 89.3349L548 89.53L547 91.5125L539.965 93.7193L537.624 93.4121L536.087 90.1299L537.824 88.9179L537.807 88.1498L536.126 86.5721L536.553 84.7285L534.924 78.8249L532.381 75.3622L531.167 74.7355L524.136 75.016L521.744 73.9162L521.269 72.7969L517.942 70.3925L516.972 70.3072L512.778 69.1586L511.276 69.7097L502.119 66.0105L498.086 66.4031L497.23 72.3872L498.459 74.7721L496.883 76.6205L486.932 76.757L484.279 75.7085L482.952 74.5404L479.487 77.5691L477.783 75.8499L472.874 74.0332L462.82 76.4376L459.445 74.1869L457.024 69.3293L453.91 69.7853L449.459 66.2276L445.033 68.7026L441.81 68.9953L438.893 68.3344L437.837 70.2462L435.621 69.1026L428.534 63.1989L428.013 60.0801L425.686 58.4682L418.436 58.6657L402.089 52.0817L400.092 50.4236L400.643 48.2265L400.652 47.5998L399.075 47.9265L397.902 49.3994L397.531 51.5428L395.541 53.1596L392.127 52.3329L391.198 49.4823L392.922 47.6071L395.349 39.938L392.459 37.2897L390.657 36.6484L386.941 36.1875L386.087 37.7384L384.666 38.4846L383.229 37.3678L382.834 35.278L377.852 35.0292L375.499 32.0347L375.148 27.4064L369.454 30.8179L369.717 32.2176L367.908 30.7496L358.891 34.3147L355.457 32.8248L353.667 33.1955L346.539 32.4542L343.233 30.8984L339.785 28.3965L331.779 26.1238L331.016 28.0088L328.458 23.9511L326.2 23.4439L318.306 24.3705L317.984 25.8604L313.654 28.7403L314.719 32.164L311.069 29.4914L307.399 29.7035L301.41 26.7505L296.684 25.6214L292.051 25.7507L290.954 24.8704L291.809 23.734L293.577 23.8682L293.08 22.1783L291.414 21.8466L285.874 19.0423L278.239 22.3343L277.473 22.4977L278.017 24.312L276.698 23.6487L274.016 25.3093L273.267 24.1047L276.464 21.7247L275.072 20.6127L269.658 21.4321L266.381 24.1266L264.666 23.4122L255.09 26.5798L248.314 27.0504L246.124 28.0039L241.247 27.8088L237.974 26.5091L226.472 24.8582L218.174 21.932L216.416 22.7538L197.619 17.3183L194.74 19.0545L195.481 17.8255L195.669 16.5014L192.76 15.9259L182.774 16.0454L181.338 15.287L179.928 14.992L173.003 8.73475L170.311 10.6465L169.852 13.8727L159.235 15.4772L155.487 14.2824L154.677 13.741L154.014 13.4996L148.018 15.843L142.377 15.1285L139.785 16.5014L136.186 15.0432L115.495 15.9796L112.918 20.7298L112.764 19.5837L113.532 17.8036L112.467 15.7406L103.183 15.5943L102.127 15.9259L102.208 14.8603L102.447 14.236L102.179 13.7947L91.1248 4.63317L87.8572 4.43809L85.3991 7.04974L83.3288 3.02863L80.8586 4.26496L80.883 2.99693L81.7804 1.55333L81.2171 0L80.6611 0.629136L73.8406 6.00606L71.8483 6.80833L71.8752 6.78394L72.2409 8.6494L69.6195 8.37629L71.0217 6.63763L72.9603 5.116L71.0022 2.0898L69.639 2.21417L69.3172 2.57751L66.2666 4.90141L62.3918 5.71587L61.3505 7.62035L61.7236 10.3466L60.7458 9.63944L60.1045 9.87597L54.8812 13.8678L49.4091 15.8308L50.1626 17.8889L48.9995 19.8056L48.7385 21.8588L56.2906 21.2687L55.5639 22.3148L50.148 23.3707L55.6712 25.8897L54.6397 29.0915L54.669 32.459L52.2939 29.7937L48.7044 27.0358L47.5412 30.3912L45.3222 28.355L39.9697 31.5056L35.9168 32.8224L29.9279 34.7927L23.4439 31.3593L15.9723 35.3438L18.3961 38.3212L14.5701 38.4651L13.5264 40.2745L6.41329 42.1546L4.04305 44.2907L4.56977 45.2929H7.53744L4.00648 47.4559L1.18999 51.3551L2.42632 54.0082L1.03149 58.1536L0 59.4851V60.4605L1.64112 62.1309L3.85041 59.3753L4.98676 59.9679L5.58663 59.2534L7.99344 60.9531L7.72277 63.9792L9.62969 65.9764L8.31533 67.993L8.99079 70.3486L11.8682 70.7851L12.9217 68.7612L15.0139 68.9343L19.5422 66.3885L20.4616 67.1688L19.196 69.2757L18.7546 69.4683L14.1775 73.7211L11.2806 82.729L13.1582 84.3384L13.9946 87.128L16.4087 84.2213L18.4376 83.3532L19.7763 81.0244L20.9883 81.7145L22.7489 76.9277L23.8999 78.386L27.1772 79.2297L23.756 86.694L23.5146 92.0587L21.7662 91.671L21.8539 90.9004L20.7834 89.6617L17.9987 91.2979L23.3536 95.9433L28.199 94.8849L29.9839 93.6145L31.8226 93.8144L25.8994 99.7986L23.4097 99.6059V102.598H22.2709L21.7052 105.21L27.3504 104.402L28.4526 103.903L33.2686 99.9327L33.5052 99.9302L32.3322 103.742L25.6556 108.953L22.9318 112.296L23.9486 113.562L20.5713 114.71L20.1641 117.229L21.2053 130.278L22.5562 129.8L35.2048 119.553L41.045 117.422L46.3342 116.561L53.9277 113.145L54.7446 115.347L54.7519 117.539L56.3906 118.758L57.5586 118.441L59.9776 119.697L59.5899 122.418L58.2731 123.486L54.0521 128.456L53.6278 129.587L54.8348 132.409L56.0809 133.148L56.1955 135.72L61.4846 135.91L67.6541 132.17L69.6585 129.331L70.2413 132.375L72.2994 132.236L73.5138 131.577L79.1882 130.051L84.3847 131.821L84.0019 134.267L89.369 132.489L93.0463 135.906L94.1485 135.081L102.91 132.192L105.241 127.656L105.775 125.188L109.24 124.979L112.757 127.039L115.724 125.678L120.594 127.261L124.437 124.342L125.681 125.147L126.63 126.559L128.636 127.744L132.287 127.663L134.76 125.959L136.664 128.4L136.43 131.116L138.622 132.08L136.396 140.512L137.166 143.931L138.286 146.303L142.175 144.816L148.961 146.63L154.809 152.029L151.822 156.082L150.666 159.571L149.022 162.268L146.998 162.966L144.389 165.938L137.203 171.43L134.803 171.664L131.653 173.461L124.384 185.683L123.021 186.083L121.326 185.954L118.341 186.527L117.712 189.482L124.391 199.512L123.479 202.467L123.167 206.774L124.428 210.631L123.684 215.087L123.364 215.742L122.611 218.471L124.123 220.612L123.745 223.526L123.05 224.806L122.291 227.591L125.344 231.885L121.482 235.953L119.67 238.401L115.82 239.606L113.744 242.149L113.352 243.12L113.932 245.892L114.252 247.399L118.551 249.65L121.318 253.961L119.346 261.104L115.532 268.531L114.827 273.496L113.013 275.42L106.848 276.196L101.649 275.708L95.4678 276.44L87.6987 276.059L89.1666 281.734L91.9904 284.55L97.0138 289.193L99.3572 289.988L98.7768 296.86L99.9205 299.208L102.569 302.256L102.379 303.117L102.054 306.38L104.785 308.108L105.49 308.296L106.97 309.684L106.556 312.422L108.597 313.68L111.562 312.408L113.635 313.342L116.229 316.497L116.505 319.096L112.215 325.676L112.579 327.019L109.977 330.655L107.577 331.304L102.41 335.981L101.232 337.771L100.73 342.106L101.586 344.315L98.2257 351.775L98.2282 352.246L97.5283 354.996L103.3 361.517L108.694 370.893L109.728 372.597L112.091 372.154L113.537 371.293L116.956 370.454L117.709 370.956L114.037 381.642L112.372 382.212L108.926 381.005L108.041 382.593L105.429 383.988L101.91 384.627L100.118 391.713L97.0016 396.517L95.1264 398.072L92.6196 400.643L91.9953 404.152L90.2152 408.031L88.5253 410.643L89.2837 412.943L91.9197 418.227L94.3265 433.497L97.4259 434.711L101.352 433.716L113.391 433.382L117.38 435.192L118.768 435.516L117.568 432.082L120.828 430.527L119.672 433.814L121.257 436.165L138.751 447.535L141.678 450.488L144.314 456.426L145.721 458.087L147.428 457.926L147.45 453.475L148.486 451.91L150.917 450.983L153.112 451.849L151.936 452.412L149.783 452.146L147.937 454.329L148.31 457.599L147.771 459.057L145.13 460.374L143.236 462.079L143.365 464.025L145.36 468.085L147.245 469.721L149.664 470.018L151.427 470.708L153.297 474.82L153.399 475.907L155.367 476.41L153.785 478.404L150.217 474.595L149.449 474.73L156.072 488.361L161.981 495.762L169.908 498.508L172.99 501.917L183.986 507.635H184.961L186.619 506.757L190.116 505.716L192.257 502.521L191.472 499.676L193.198 497.447L195.144 498.359L196.903 499.644L199.6 491.377L205.459 482.93L218.276 477.463L221.529 476.893L226.082 477.717L231.381 477.466L235.707 473.479L238.196 471.942L241.052 468.828L243.602 464.7L245.468 463.759L252.518 464.263L257.292 463.595L258.209 463.266L272.089 461.386L285.228 462.381L292.465 464.502L300.683 461.632L318.436 461.823L321.176 463.093L322.513 464.588L323.934 463.898L324.744 464.239L329.562 465.19L333.849 461.605L335.337 458.552L336.329 457.533L349.588 456.897L354.14 461.566L357.42 462.832L361.634 458.24L365.221 452.581L368.896 450.537L369.774 450.174L370.056 449.866L369.937 448.596L370.225 446.496L373.412 437.089L374.921 432.341L382.249 423.17L389.25 419.331L390.696 419.083L391.34 416.769L392.932 415.071L399.697 411.133L402.308 410.602L406 411.114L409.282 412.567L410.204 410.55L412.708 409.868L419.197 411.414L428.3 408.743L430.156 407.324L429.273 405.766L425.642 405.517L422.789 400.613L423.253 398.916L425.986 395.134L427.296 395.861L427.837 390.277L429.749 386.777L431.183 385.156L432.226 382.588L431.951 379.186L433.016 373.039L436.733 370.847L437.218 370.881L439.032 369.098L439.354 362.295L442.839 360.429L444.38 360.256L444.853 357.442L447.947 354.323L458.526 349.629L459.74 349.58L461.832 347.744L462.332 344.864L465.129 343.884L468.541 343.24L471.372 339.946L476.302 336.461L476.081 334.715L474.293 331.984L472.593 330.306L463.564 327.448L459.04 323.044L455.265 317.194L453.1 311.135L453.778 307.982L450.027 298.467L448.789 287.849L450.032 284.216L457.953 268.595L467.263 254.622L474.13 247.592L476.332 243.371L483.862 234.517L490.078 223.358L492.884 216.93L494.867 214.979L496.388 214.277L501.329 212.907L502.368 213.628L500.11 215.772L496.642 216.559L497.793 218.118L499.81 217.018L504.133 212.021L508.466 210.185L510.451 207.922L504.567 202.687L503.887 203.93L500.985 202.601L502.334 200.287L514.48 187.743L520.166 184.671L524.587 185.283L527.06 182.381L541.472 176.907L570.392 170.445L574.523 167.045L577.064 162.893L585.243 156.423L611.308 141.439L624.993 131.45L627.449 128.558L628.57 126.403L628.322 123.708L626.922 118.914L627.012 117.217L625.7 114.725L624.091 113.625L622.796 108.994L624.203 105.883L630.343 105.805Z" fill="#7D6D89"/>
<path d="M682.905 262.857L681.381 262.072L681.398 265.82L678.404 266.381L671.905 262.645L665.234 258.719L659.503 259.329L657.684 258.656L658.006 256.624L658.715 255.364L657.299 254.754L656.326 253.476L657.308 251.42L660.593 250.704L662.207 251.191L667.599 250.604L669.616 250.557L671.549 249.299L671.659 250.794L672.903 251.547L672.756 252.806L673.529 252.42L674.476 250.355L675.163 252.41L677.368 254.313L678.753 254.754L679.45 255.92L679.626 257.458L678.853 258.08L680.982 258.163L681.564 260.823L682.905 262.857Z" fill="#7D6D89"/>
<path d="M624.298 256.924L625.771 257.675L625.63 258.104L619.992 260.955V262.457L621.553 262.93L625.259 261.979L624.737 264.064L621.404 265.822L621.943 268.88L625.559 270.992L630.004 270.919L631.763 269.695L632.782 268.839L636.167 270.465L638.854 271.35L638.7 275.586L637.527 277.569L635.842 278.715L635.111 279.892L635.628 281.268L632.626 284.609L630.641 287.047L629.787 288.998L629.388 292.361L628.695 291.853L627.883 294.497L626.049 296.348L621.131 299.401L618.322 301.98L616.749 299.71L615.364 298.835L615.147 297.211L612.52 295.845L611.011 296.435L605.361 295.499L603.293 293.619L602.8 290.298L602.062 289.434L602.505 288.637L602.8 286.274L600.903 284.372L599.547 283.331L597.884 282.989L593.127 285.542L591.825 288.259L591.091 289.027L589.708 289.215L588.635 287.457L589.057 286.328L588.121 285.221L587.065 285.696H585.116L582.924 283.243L582.731 281.275L584.563 279.232L588.455 277.252L591.235 274.306L594.185 273.308L596.811 269.843L598.331 269.612L601.15 266.637L603.917 264.939L605.936 263.308L607.636 263.393L612.252 260.506L618.814 259.45L624.298 256.924Z" fill="#7D6D89"/>
<path d="M527.321 321.469L528.586 321.64L530.708 320.857L530.254 318.514L530.635 316.524L533.429 314.073L534.183 314.531L535.187 313.8L535.863 314.044L538.682 312.522L540.591 312.478L542.284 311.525L543.554 312.42H545L545.797 313.01L545.878 315L546.856 316.743L545.185 317.702L544.371 319.899L542.613 321.03L541.137 323.271L538.46 325.371L537.765 324.554L536.046 326.907L535.314 329.838L532.612 327.858L531.547 328.216L530.813 327.897L530.04 327.18L529.186 327.241L528.228 328.041L526.887 327.129L526.138 325.871L526.709 324.505L526.948 322.791L526.511 322.037L527.321 321.469Z" fill="#7D6D89"/>
<path d="M287.453 208C281.62 208.007 276.028 210.327 271.904 214.451C267.78 218.576 265.46 224.167 265.453 230C265.446 234.766 267.003 239.404 269.885 243.2C269.885 243.2 270.485 243.99 270.583 244.104L287.453 264L304.331 244.094C304.419 243.988 305.021 243.2 305.021 243.2L305.023 243.194C307.903 239.399 309.459 234.764 309.453 230C309.446 224.167 307.126 218.576 303.001 214.451C298.877 210.327 293.285 208.007 287.453 208ZM287.453 238C285.87 238 284.324 237.531 283.008 236.652C281.693 235.773 280.667 234.523 280.062 233.061C279.456 231.6 279.298 229.991 279.606 228.439C279.915 226.887 280.677 225.462 281.796 224.343C282.915 223.224 284.34 222.462 285.892 222.154C287.444 221.845 289.052 222.003 290.514 222.609C291.976 223.214 293.225 224.24 294.104 225.555C294.983 226.871 295.453 228.418 295.453 230C295.45 232.121 294.606 234.154 293.107 235.654C291.607 237.154 289.574 237.997 287.453 238Z" fill="white"/>
<path d="M360.733 255H354.829L354.781 232.728L343.741 251.16H340.957L329.917 233.016V255H323.965V221.4H329.101L342.445 243.672L355.549 221.4H360.685L360.733 255ZM379.024 229.08C386.416 229.08 390.688 232.584 390.688 239.976V255H385.024V251.88C383.584 254.088 380.8 255.336 376.96 255.336C371.104 255.336 367.408 252.12 367.408 247.656C367.408 243.384 370.288 240.024 378.064 240.024H384.688V239.64C384.688 236.136 382.576 234.072 378.304 234.072C375.424 234.072 372.448 235.032 370.528 236.616L368.176 232.248C370.912 230.136 374.896 229.08 379.024 229.08ZM378.208 250.968C381.136 250.968 383.68 249.624 384.688 246.984V244.008H378.496C374.416 244.008 373.312 245.544 373.312 247.416C373.312 249.576 375.136 250.968 378.208 250.968ZM417.727 219.384H423.727V255H417.967V251.688C415.951 254.136 412.975 255.336 409.471 255.336C402.031 255.336 396.511 250.152 396.511 242.184C396.511 234.216 402.031 229.08 409.471 229.08C412.783 229.08 415.711 230.184 417.727 232.536V219.384ZM410.191 250.2C414.511 250.2 417.823 247.08 417.823 242.184C417.823 237.288 414.511 234.168 410.191 234.168C405.871 234.168 402.559 237.288 402.559 242.184C402.559 247.08 405.871 250.2 410.191 250.2ZM437.288 233.112C439.016 230.424 442.136 229.08 446.408 229.08V234.792C445.88 234.696 445.448 234.648 445.016 234.648C440.456 234.648 437.576 237.336 437.576 242.568V255H431.576V229.368H437.288V233.112ZM454.522 225.144C452.314 225.144 450.682 223.56 450.682 221.544C450.682 219.528 452.314 217.944 454.522 217.944C456.73 217.944 458.362 219.432 458.362 221.4C458.362 223.512 456.778 225.144 454.522 225.144ZM451.498 255V229.368H457.498V255H451.498ZM484.477 219.384H490.477V255H484.717V251.688C482.701 254.136 479.725 255.336 476.221 255.336C468.781 255.336 463.261 250.152 463.261 242.184C463.261 234.216 468.781 229.08 476.221 229.08C479.533 229.08 482.461 230.184 484.477 232.536V219.384ZM476.941 250.2C481.261 250.2 484.573 247.08 484.573 242.184C484.573 237.288 481.261 234.168 476.941 234.168C472.621 234.168 469.309 237.288 469.309 242.184C469.309 247.08 472.621 250.2 476.941 250.2Z" fill="white"/>
<path d="M324.521 284.564H334.573V287H320.489V285.096L328.469 277.396C330.541 275.38 330.933 274.148 330.933 272.916C330.933 270.9 329.505 269.668 326.761 269.668C324.661 269.668 322.953 270.34 321.749 271.796L319.845 270.144C321.357 268.268 323.961 267.176 327.013 267.176C331.101 267.176 333.733 269.276 333.733 272.636C333.733 274.54 333.173 276.248 330.513 278.796L324.521 284.564ZM344.801 287.224C340.209 287.224 336.793 283.584 336.793 277.2C336.793 270.816 340.209 267.176 344.801 267.176C349.365 267.176 352.781 270.816 352.781 277.2C352.781 283.584 349.365 287.224 344.801 287.224ZM344.801 284.732C347.853 284.732 349.981 282.212 349.981 277.2C349.981 272.188 347.853 269.668 344.801 269.668C341.721 269.668 339.593 272.188 339.593 277.2C339.593 282.212 341.721 284.732 344.801 284.732ZM354.266 267.4H361.462V287H358.69V269.836H354.266V267.4ZM371.35 275.212C377.202 275.212 379.498 277.648 379.498 281.12C379.498 284.508 377.09 287.224 372.078 287.224C369.306 287.224 366.562 286.328 364.882 284.844L366.17 282.632C367.486 283.864 369.67 284.732 372.05 284.732C375.018 284.732 376.698 283.36 376.698 281.232C376.698 279.02 375.298 277.648 370.762 277.648H366.31L367.346 267.4H378.406V269.836H369.698L369.166 275.212H371.35ZM389.599 280.476V278.152H397.131V280.476H389.599ZM411.31 284.564H421.362V287H407.278V285.096L415.258 277.396C417.33 275.38 417.722 274.148 417.722 272.916C417.722 270.9 416.294 269.668 413.55 269.668C411.45 269.668 409.742 270.34 408.538 271.796L406.634 270.144C408.146 268.268 410.75 267.176 413.802 267.176C417.89 267.176 420.522 269.276 420.522 272.636C420.522 274.54 419.962 276.248 417.302 278.796L411.31 284.564ZM431.59 287.224C426.998 287.224 423.582 283.584 423.582 277.2C423.582 270.816 426.998 267.176 431.59 267.176C436.154 267.176 439.57 270.816 439.57 277.2C439.57 283.584 436.154 287.224 431.59 287.224ZM431.59 284.732C434.642 284.732 436.77 282.212 436.77 277.2C436.77 272.188 434.642 269.668 431.59 269.668C428.51 269.668 426.382 272.188 426.382 277.2C426.382 282.212 428.51 284.732 431.59 284.732ZM441.056 267.4H448.252V287H445.48V269.836H441.056V267.4ZM452.035 267.4H466.819V269.304L458.895 287H455.927L463.683 269.836H454.723V273.336H452.035V267.4Z" fill="white"/>
</g>
<defs>
<clipPath id="clip0_5_352">
<rect width="682.905" height="507.635" fill="white"/>
</clipPath>
</defs>
</svg>
